<svg xmlns="http://www.w3.org/2000/svg" viewBox="0 0 32 32" fill="none">
  <path d="M16 28c-2-2-11-9-11-16a5 5 0 0110 0h2a5 5 0 0110 0c0 7-9 14-11 16z" fill="#78C3C8"/>
  <circle cx="10" cy="6" r="3.5" fill="#78C3C8" opacity=".7"/>
  <circle cx="22" cy="6" r="3.5" fill="#78C3C8" opacity=".7"/>
  <circle cx="6" cy="14" r="2.8" fill="#78C3C8" opacity=".5"/>
  <circle cx="26" cy="14" r="2.8" fill="#78C3C8" opacity=".5"/>
  <path d="M16 22c-1-1-5-4-5-8a3 3 0 016 0h0a3 3 0 016 0c0 4-4 7-5 8z" fill="#E6BE46" opacity=".9"/>
</svg>
